HIERARCHY
ROOT Hips
{
  OFFSET 25.1695 91.2749 219.373
  CHANNELS 6 Xposition Yposition Zposition Zrotation Xrotation Yrotation
  JOINT LeftUpLeg
  {
    OFFSET 8.9458 -8.66707 0.101652
    CHANNELS 3 Zrotation Xrotation Yrotation
    JOINT LeftLeg
    {
      OFFSET 0 -44.4227 1.3727
      CHANNELS 3 Zrotation Xrotation Yrotation
      JOINT LeftFoot
      {
        OFFSET -0.253549 -42.0924 -1.46059
        CHANNELS 3 Zrotation Xrotation Yrotation
        JOINT LeftToes
        {
          OFFSET -0.04 -4.41509 8.4991
          CHANNELS 3 Zrotation Xrotation Yrotation
          End Site
          {
            OFFSET 0.08 -0.047448 9.77979
          }
        }
      }
    }
  }
  JOINT RightUpLeg
  {
    OFFSET -8.9458 -8.66707 0.101652
    CHANNELS 3 Zrotation Xrotation Yrotation
    JOINT RightLeg
    {
      OFFSET 0 -44.4227 1.3727
      CHANNELS 3 Zrotation Xrotation Yrotation
      JOINT RightFoot
      {
        OFFSET 0.253549 -42.0924 -1.46059
        CHANNELS 3 Zrotation Xrotation Yrotation
        JOINT RightToes
        {
          OFFSET 0.04 -4.41509 8.4991
          CHANNELS 3 Zrotation Xrotation Yrotation
          End Site
          {
            OFFSET -0.08 -0.137448 9.77979
          }
        }
      }
    }
  }
  JOINT Spine
  {
    OFFSET 0 11.8905 0
    CHANNELS 3 Zrotation Xrotation Yrotation
    JOINT Spine1
    {
      OFFSET 0 25.6574 0.127663
      CHANNELS 3 Zrotation Xrotation Yrotation
      JOINT HEad
      {
        OFFSET 0 8.73416 0.011341
        CHANNELS 3 Zrotation Xrotation Yrotation
        End Site
        {
          OFFSET -0.29 12.7742 2.51395
        }
      }
      JOINT LeftShoulder1
      {
        OFFSET 8.99 -0.362252 -0.22
        CHANNELS 3 Zrotation Xrotation Yrotation
        JOINT LeftArm
        {
          OFFSET 10.2827 -0.00338 0.322123
          CHANNELS 3 Zrotation Xrotation Yrotation
          JOINT LeftForeArm
          {
            OFFSET 32.7669 0.099144 -1.42434
            CHANNELS 3 Zrotation Xrotation Yrotation
            JOINT LeftHand
            {
              OFFSET 27.5643 0.085362 1.02216
              CHANNELS 3 Zrotation Xrotation Yrotation
              End Site
              {
                OFFSET 16.7443 -0.6 1.50291
              }
            }
          }
        }
      }
      JOINT RightShoulder
      {
        OFFSET -8.99 -0.362252 -0.22
        CHANNELS 3 Zrotation Xrotation Yrotation
        JOINT RightArm
        {
          OFFSET -10.2827 -0.00338 0.322123
          CHANNELS 3 Zrotation Xrotation Yrotation
          JOINT RightForeArm
          {
            OFFSET -32.8971 0.099144 -1.42434
            CHANNELS 3 Zrotation Xrotation Yrotation
            JOINT RightHand
            {
              OFFSET -27.4921 0.085362 1.02216
              CHANNELS 3 Zrotation Xrotation Yrotation
              End Site
              {
                OFFSET -16.6312 -0.6 1.50291
              }
            }
          }
        }
      }
    }
  }
}
MOTION
Frames:	12
Frame Time:	0.0166667
26.6322 99.6693 219.533 58.0592 8.00639 50.1512 60.0367 -34.6288 21.2021 -126.663 74.012 140.357 -48.9595 9.3821 8.22758 -1.34027e-009 1.55988e-007 -4.84143e-009 -71.3637 32.1005 52.9266 20.7451 17.7859 -29.0068 -7.446 -6.36262 -2.78949 0.0462048 0.000533403 0.662642 -22.0056 36.8627 12.7893 0.02484 -0.01083 0.000559402 -9.95583 13.3709 5.01226 3.18055e-015 -2.38542e-015 3.18055e-015 -57.4623 -44.7454 -6.32636 -17.9372 -11.292 -68.8709 2.26191 19.0671 -14.5463 6.28009 7.55129 8.79811 81.8807 15.1447 52.8584 18.5621 50.2064 81.1243 18.9985 23.7298 6.55605 
26.3738 99.0797 219.63 57.6598 7.88441 50.6522 53.882 -35.3281 20.1263 -140.732 72.7356 153.619 -38.5009 11.5512 9.04036 -1.34027e-009 1.55988e-007 -4.84144e-009 -70.5048 31.1877 52.5885 23.346 18.8685 -30.8891 -9.15988 -7.41778 -2.83784 0.0462048 0.000533403 0.662642 -25.1236 37.8874 14.5534 0.02765 -0.01373 0.000489334 -8.40187 12.4765 4.5783 -4.77083e-015 1.59028e-015 3.18055e-015 -55.6853 -46.6144 -7.87687 -19.8599 -2.82916 -74.6955 4.17986 19.5916 -28.292 9.09036 6.37609 8.8569 81.6199 14.8206 52.7275 18.3635 50.29 81.9738 18.4508 23.7064 7.0104 
25.9174 98.1353 219.592 55.2236 8.23239 52.6717 46.3451 -33.0718 16.6905 -144.949 74.6688 164.043 -66.2071 11.6734 8.95199 -1.34027e-009 1.55988e-007 -4.84144e-009 -67.4903 30.1693 49.7103 26.8696 20.3883 -33.1918 -11.0437 -8.86697 -2.82067 0.0462048 0.000533403 0.662642 -25.2078 37.4712 13.5741 0.02437 -0.0106738 0.000307385 -7.32627 11.9432 4.32726 8.82781e-032 -1.59028e-015 3.18055e-015 -53.5921 -52.8227 -10.3184 -22.1469 6.16782 -74.8071 10.2548 18.2639 -10.6613 11.2081 5.67473 8.85365 81.6346 14.4533 52.723 18.138 50.3912 82.8846 19.0981 23.1198 5.6863 
25.1244 97.5467 219.861 52.9198 8.46724 54.5956 40.2834 -35.2862 18.136 -144.133 75.9277 165.618 -50.4155 12.5616 10.7112 -1.34027e-009 1.55988e-007 -4.84142e-009 -64.3862 29.5573 46.9035 29.6883 21.1118 -35.1873 -13.1728 -9.80364 -2.98083 0.0462048 0.000533403 0.662642 -24.8695 36.9621 12.4617 0.0196 -0.00603003 5.34857e-005 -6.6602 11.7229 4.2268 -8.82781e-032 -7.95139e-016 -6.36111e-015 -52.4919 -61.6954 -13.6764 -25.7571 15.8804 -71.6823 4.34482 18.7061 -36.0813 12.6662 5.37214 8.78458 81.8883 13.987 52.8453 17.9193 50.4725 83.8046 18.9133 22.9384 5.48755 
24.2846 97.1526 219.932 50.8185 8.67328 56.3911 34.5079 -35.5747 19.3968 -134.074 78.5236 159.764 -49.6979 13.743 10.8135 -1.34027e-009 1.55988e-007 -4.84144e-009 -61.7274 28.7082 44.3733 32.549 21.6498 -37.1677 -15.2834 -10.7491 -3.12849 0.0462048 0.000533403 0.662642 -24.3529 36.3949 11.3247 0.0145599 -0.00258001 -0.000194387 -6.33213 11.7547 4.25297 -0 0 3.18055e-015 -54.7296 -72.0777 -19.6566 -31.0788 25.9017 -65.8439 8.42009 18.598 -15.9085 13.5487 5.38179 8.65158 82.3283 13.3988 53.0834 17.7063 50.5286 84.674 19.3807 22.5063 4.31165 
23.4037 97.1257 219.909 48.9252 8.8918 58.0667 29.1745 -35.6758 21.4647 -122.205 81.9722 151.184 -49.9158 13.799 11.0944 -1.34027e-009 1.55988e-007 -4.84144e-009 -59.5017 27.9452 42.0899 34.9777 21.746 -38.8503 -17.2913 -11.5376 -3.30355 0.0462048 0.000533403 0.662642 -23.7689 35.8121 10.2012 0.0103798 0.00103874 -0.000358256 -7.41511 12.7068 5.46551 -1.76556e-031 1.59028e-015 6.36111e-015 -61.9994 -79.0084 -29.193 -36.2952 33.212 -61.4419 8.22451 17.7249 -29.1869 13.9445 5.62523 8.46012 82.8906 12.6824 53.4179 17.49 50.5619 85.4808 19.3179 22.3376 3.90987 
22.5965 97.4247 219.858 47.2338 9.16239 59.6191 22.8155 -35.3843 23.2997 -160.548 89.2682 -169.303 -50.6258 12.8175 11.5712 -1.34027e-009 1.55988e-007 -4.84143e-009 -57.977 27.4249 40.1131 36.4568 21.5934 -39.7627 -15.7532 -12.282 -2.92077 0.0462048 0.000533403 0.662642 -23.2405 35.242 9.14868 0.00585 0.00451999 -0.000360143 -9.78327 14.3599 7.71809 -7.95139e-016 3.97569e-016 -0 -79.1481 -83.2606 -47.7086 -41.0566 38.5917 -57.7565 11.1987 17.5267 -17.1288 13.9211 6.02943 8.21396 83.5495 11.8326 53.8416 17.3003 50.5775 86.1788 19.6125 22.0441 3.0167 
21.8234 97.9082 219.801 45.7102 9.49024 61.0518 16.6927 -35.1946 25.9175 72.2513 81.7403 -40.9323 -51.3372 11.8769 12.2728 -1.34026e-009 1.55988e-007 -4.84145e-009 -56.7436 27.0585 38.3279 37.5277 21.1329 -40.3807 -14.0841 -12.9275 -2.50028 0.0462048 0.000533403 0.662642 -22.8412 34.7048 8.21506 0.00223001 0.00742 1.99434e-005 -12.0742 15.8032 9.83277 7.95139e-016 -1.19271e-015 -6.36111e-015 -110.122 -85.021 -79.3999 -45.46 42.9333 -54.907 11.4799 16.9341 -25.0737 13.5497 6.53574 7.91492 84.2863 10.8596 54.3519 17.1594 50.5757 86.7389 19.5985 21.9278 2.6578 
21.1609 98.4334 219.785 44.3148 9.85543 62.3759 11.7807 -36.4466 29.1001 76.9128 74.6154 -47.6531 -41.4168 12.3088 12.581 -1.34028e-009 1.55988e-007 -4.84144e-009 -55.7352 26.9217 36.7264 38.1393 20.4319 -40.6753 -12.2024 -13.4994 -2.052 0.0462048 0.000533403 0.662642 -23.6835 35.0922 8.41071 -0.0627292 0.0891301 0.0280915 -13.2038 16.0833 11.1228 1.59028e-015 3.97569e-016 3.18055e-015 -142.826 -83.5181 -113.616 -49.6998 46.2125 -52.2212 13.8555 16.7764 -17.6778 13.8564 5.97843 7.34847 84.9683 9.83389 54.8535 16.983 50.6141 87.3062 19.7606 21.8038 2.12819 
20.5526 98.874 219.795 42.9835 10.237 63.6531 6.92778 -37.4801 32.0051 79.9116 67.7363 -52.2643 -34.1199 12.5707 12.9257 -1.34027e-009 1.55988e-007 -4.84143e-009 -54.8387 26.9044 35.1783 38.4069 19.6599 -40.8062 -10.0838 -14.0393 -1.54874 0.0462048 0.000533403 0.662642 -24.8531 35.6949 8.89231 -0.0201798 0.02859 0.00661048 -14.2197 16.2246 12.2892 7.95139e-016 -1.98785e-016 6.36111e-015 -158.16 -80.6856 -130.522 -54.3872 49.0682 -49.1547 15.7364 16.6482 -13.8651 11.3109 7.52051 6.7721 87.819 8.88025 57.6867 16.6734 50.738 88.1443 19.8462 21.7295 1.72755 
19.976 99.2172 219.838 41.6813 10.6001 64.8931 2.26174 -38.0227 34.3557 81.8323 61.4127 -55.0711 -29.9627 12.7116 13.5053 -1.34027e-009 1.55988e-007 -4.84143e-009 -53.9334 27.0094 33.6531 38.3562 18.8054 -40.7828 -7.78426 -14.5106 -1.01208 0.0462048 0.000533403 0.662642 -26.3183 36.4602 9.64809 -0.0183299 0.02277 0.00441044 -14.9238 16.085 13.2296 -7.95139e-016 -3.97569e-016 -6.36111e-015 -164.695 -77.223 -138.706 -59.4449 51.6001 -45.7237 17.3413 16.5028 -12.1077 9.97734 8.16821 6.04832 89.9818 8.00141 59.5848 16.3207 50.8995 89.1014 19.9086 21.7217 1.39968 
19.4007 99.5084 219.906 40.3829 10.9196 66.1042 -2.24441 -38.0206 36.1789 82.4293 55.2817 -54.9683 -28.5995 12.8504 14.3127 -1.34026e-009 1.55988e-007 -4.84144e-009 -52.9054 27.24 32.1119 37.9733 17.8389 -40.595 -5.36264 -14.8548 -0.47625 0.0462048 0.000533403 0.662642 -28.0625 37.3563 10.6801 -0.0191499 0.02193 0.00342046 -15.3496 15.7219 13.9757 -0 -4.96962e-016 -0 -167.49 -73.477 -143.142 -64.8892 53.8434 -41.916 18.7826 16.3562 -11.5026 9.4803 8.10725 5.19366 91.7208 7.13534 60.8289 15.9998 51.0583 90.0745 19.9643 21.7743 1.13179 
